<?xml version="1.0" encoding="utf-8"?>
<!-- Generator: Adobe Illustrator 26.5.0, SVG Export Plug-In . SVG Version: 6.00 Build 0)  -->
<svg version="1.1" id="Camada_1" xmlns="http://www.w3.org/2000/svg" xmlns:xlink="http://www.w3.org/1999/xlink" x="0px" y="0px"
	 viewBox="0 0 100.5 105.5" style="enable-background:new 0 0 100.5 105.5;" xml:space="preserve">
<style type="text/css">
	.st0{fill:#C92071;}
</style>
<path class="st0" d="M17,5.3c-3.5,0.6-6.7,2.3-9.3,4.8C5.8,12,5,13.2,4,15.7c-1.4,3.1-1.3,1.1-1.3,36.9c0,35,0,33.6,1.1,36.6
	c0.8,2.1,2,3.9,3.6,5.7c2.4,2.5,5,4,8.4,4.9l1.6,0.4l31.6,0.1c22.5,0,32.2,0,33.6-0.2c4.1-0.5,7.4-2,10.3-4.9
	c2.1-2.1,3.4-4.1,4.4-7.2l0.6-1.7V52.8V19.2l-0.5-1.6c-1.7-5.8-6-10.1-11.8-11.9l-1.8-0.6l-32.9,0C32.8,5.2,17.6,5.2,17,5.3z
	 M38.1,40.9c6.7,6.4,12.1,11.7,12.1,11.8c0,0.1-5.5,5.4-12.2,11.8L25.8,76.2l-3.1-3c-1.7-1.6-3.1-3.1-3.1-3.2c0-0.1,4-4,8.9-8.7
	c4.9-4.7,8.9-8.6,8.9-8.6c0-0.1-4-4-8.9-8.7c-4.9-4.7-8.9-8.6-8.9-8.7c0-0.3,6.1-6.1,6.3-6.1C25.9,29.3,31.4,34.5,38.1,40.9z
	 M81.3,72.6v3.7H69.8H58.3v-3.7v-3.7h11.5h11.5V72.6z"/>
</svg>
